<?xml version="1.0" encoding="utf-8"?>
<!-- Generator: Adobe Illustrator 26.5.0, SVG Export Plug-In . SVG Version: 6.00 Build 0)  -->
<svg version="1.1" id="Layer_1" xmlns="http://www.w3.org/2000/svg" xmlns:xlink="http://www.w3.org/1999/xlink" x="0px" y="0px"
	 viewBox="0 0 435.4 319.9" style="enable-background:new 0 0 435.4 319.9;" xml:space="preserve">
<style type="text/css">
	.st0{fill-rule:evenodd;clip-rule:evenodd;fill:#4D7F71;}
	.st1{fill:#B99C16;}
	.st2{fill:#BB9916;}
	.st3{fill:#76777A;}
</style>
<g id="Logo" transform="translate(-1332.834 -1284.873)">
	<g id="Group_1102" transform="translate(1650.025 1284.873)">
		<path id="Path_1312" class="st0" d="M56.3,178.2l3.1,2.3l2.6-2.1c0-3.3-0.4-30.4-0.4-30.4l10.6,20.5c2.7-9.8,1-16.9-3.6-22.1
			l15.5,10c-0.8-9.6-8.9-17.5-16-18.7l19.8,1.8c-6.9-8.1-17.9-8.9-22.7-7.1l12.4-10.1c-6.9-0.8-14.8,1.8-18.6,7.9
			c-3.8-6.1-11.7-8.7-18.6-7.9L53,132.5c-4.7-1.8-15.8-1-22.7,7.1l19.8-1.8c-7.1,1.2-15.2,9.1-16,18.7l15.5-10
			c-4.7,5.2-6.3,12.3-3.6,22.1L56.7,148c0,0,0,8.7-0.1,19.2C56.5,177.1,56.3,178.2,56.3,178.2z"/>
		<g id="Group_1101" transform="translate(3.682 39.093)">
			<path id="Path_1313" class="st1" d="M80.5,134.7l0.3-0.2v7.3l-7.8,5.8c-1.2,0.9-2.8,1.7-5.8,1c-0.9-0.2-1.8-0.6-2.6-1.2l0,0
				l-0.5,0.4c0.9,0.6,1.9,1.1,2.9,1.4c0.7,0.2,1.5,0.3,2.3,0.3c1.5,0,2.9-0.5,4.1-1.4l8.1-6l0-8.2L80.5,134.7z"/>
			<g id="Group_1100" transform="translate(0 1.286)">
				<path id="Path_1314" class="st2" d="M60.9,154.8l-0.4-0.2l0,0C60.6,154.7,60.7,154.7,60.9,154.8z"/>
				<path id="Path_1315" class="st1" d="M58.9,156c-1.6,0.7-3.4,0.9-5.1,0.5c-3.5-1.1-14.4-9.1-22.8-15.8v-6.8l-0.6-0.5v7.6l0.2,0.2
					c8.8,7,19.4,14.9,23,15.9c0.6,0.2,1.3,0.3,1.9,0.3c1.2,0,2.5-0.3,3.6-0.8c0.9-0.4,1.8-0.9,2.6-1.4l-0.6-0.2
					C60.4,155.3,59.6,155.7,58.9,156z"/>
				<path id="Path_1316" class="st1" d="M68.8,148.7c-3.3,0-6-2.1-7-2.8c-6.4-4.8-21.9-16.4-30.5-23l-1-0.7v7.4l0.6,0.4v-6.6
					c7.1,5.4,23.8,18,30.5,23c2,1.7,4.6,2.7,7.2,2.8c0,0-4.8,3.5-4.8,3.5l0,0l0.7,0.3c0.6-0.5,5.9-4.3,5.9-4.3L68.8,148.7z"/>
			</g>
			<path id="Path_1317" class="st1" d="M62.2,145.7c0,0-4.7-3.6-4.7-3.6l23.3-18.7v7.3l-0.3,0.3l0.9-0.7l0-8l-24.8,19.9l0.6,0.4
				c0.6,0.5,3.8,2.9,4.6,3.5L62.2,145.7L62.2,145.7z"/>
			<path id="Path_1318" class="st3" d="M63.8,154.1c0.1,0,4.8-3.5,4.8-3.5c-2.6-0.1-5.2-1.1-7.2-2.8c-6.8-5-23.4-17.6-30.5-23v6.6
				c1.5,1.2,3.5,2.7,5.5,4.3l-1.7,2.3c-1.4-1.1-2.7-2.1-3.8-2.9v6.8c8.4,6.7,19.3,14.8,22.8,15.8c1.7,0.4,3.5,0.3,5.1-0.5
				c0.8-0.3,1.5-0.7,2.2-1.1c-1.4-0.5-2.7-1.2-4-2l1.7-2.2C60.4,152.8,62.1,153.5,63.8,154.1z M49.5,149.2c-2.2-1.7-4.8-3.6-7.4-5.6
				l1.7-2.3c2.6,2,5.2,3.9,7.4,5.6L49.5,149.2z"/>
			<path id="Path_1319" class="st3" d="M76.2,138.1l-1.8-2.2l6.3-5.1v-7.3l-23.3,18.7c0,0,4.7,3.6,4.7,3.6l5-4l1.8,2.2l-4.4,3.6
				c0.8,0.5,1.6,0.9,2.6,1.2c3,0.7,4.7-0.1,5.8-1l7.8-5.8v-7.3L76.2,138.1z"/>
		</g>
	</g>
	<g id="Group_1103" transform="translate(1332.834 1287.687)">
		<path id="Path_1320" class="st3" d="M34.5,157.5c1.4,0.7,3,1.1,4.6,1.1h8.9c1.6,0.1,3.2-0.3,4.7-1.1c1.2-0.6,2.2-1.6,2.8-2.8
			c0.6-1.2,0.9-2.4,0.9-3.8v-16.7l-1.7-0.2c-1.6-0.2-3.1-0.2-4.7-0.2c-1.7-0.1-3.4,0.2-5.1,0.7c-1.2,0.4-2.1,1.3-2.6,2.5
			c-1,3.3-1.1,6.8-0.1,10.1c0.3,1,1.1,1.7,2,2.1c1.3,0.4,2.6,0.6,3.9,0.5h3.9v0.8c0,1.1-0.3,2.1-1,3c-0.8,0.9-2,1.3-3.2,1.2h-8.9
			c-1.2,0.1-2.3-0.3-3.2-1.2c-0.7-0.9-1-1.9-0.9-3c0-0.9,0.1-1.9,0.2-2.8c0.2-1.2,0.4-2.7,0.7-4.5l0.2-1.5l-4-0.7
			c-0.7,3.3-1.1,6.6-1.3,10c0,1.3,0.3,2.6,0.9,3.8C32.4,155.9,33.3,156.8,34.5,157.5z M49.3,145.9c-0.7,0-1.4,0-2-0.2
			c-0.5-0.1-0.8-0.5-1-1c-0.3-0.8-0.4-1.7-0.3-2.5c0-1,0.1-1.9,0.4-2.8c0.2-0.6,0.7-1.1,1.3-1.3c0.8-0.3,1.7-0.4,2.6-0.3
			c0.7,0,1.3,0,1.9,0.1v8L49.3,145.9z"/>
		<rect id="Rectangle_373" x="46.6" y="126.9" class="st3" width="3.3" height="4"/>
		<rect id="Rectangle_374" x="51.4" y="126.9" class="st3" width="3.3" height="4"/>
		<path id="Path_1321" class="st3" d="M118,127.5h-4.3v18.4h-7.2v-18.4h-4.3v18.4h-6.6v-4.1c0-2-0.5-4.1-1.7-5.8
			c-1.1-1.6-3-2.5-5.7-2.5c-1.2,0-2.5,0.2-3.6,0.7c-1,0.4-1.9,1.1-2.7,1.8c-0.9,0.9-1.8,1.9-2.6,2.9v-11.4h-4.3v18.4h-7.9v-12H63
			v16.4c0.1,0.9-0.1,1.8-0.6,2.6c-0.4,0.6-1,0.9-1.7,0.9l-1.1-0.1v3.8c1.3,0.1,2,0.1,2.3,0.1c1.6,0.1,3.1-0.7,4-2.1
			c1-1.8,1.4-3.8,1.4-5.8H118L118,127.5z M91.4,145.9h-12v-0.3c0.2-0.9,0.6-1.8,1.1-2.7c0.8-1.4,1.8-2.7,2.9-3.8
			c1-1.1,2.4-1.7,3.9-1.7c1.2,0,2.3,0.5,3,1.5c0.7,1.1,1.1,2.4,1.1,3.7V145.9z"/>
		<rect id="Rectangle_375" x="133.9" y="126.9" class="st3" width="3.3" height="4"/>
		<path id="Path_1322" class="st3" d="M132.4,149.1c1.6,0.5,3.3,0.7,5,0.7h31.2v-7.9c0-1.5-0.2-3.1-0.6-4.6
			c-0.4-1.2-1.3-2.1-2.4-2.7c-1.6-0.7-3.3-1-5-1c-1.3,0-2.5,0.1-3.8,0.3c-0.9,0.1-1.7,0.4-2.5,0.7c-0.3,1.1-0.6,2.3-0.8,3.5
			c-0.2,1.2-0.3,2.5-0.3,3.8c0,1.4,0.2,2.7,0.4,4h-8.3v-11.9c-0.7-0.1-1.8-0.2-3.5-0.3c-1.7-0.1-3.1-0.1-4.3-0.1
			c-1.8-0.1-3.5,0.2-5.2,0.7c-1.2,0.4-2.1,1.3-2.7,2.4c-0.6,1.6-0.9,3.2-0.8,4.9c-0.1,1.8,0.2,3.5,0.9,5.1
			C130.3,147.8,131.2,148.6,132.4,149.1z M157.7,137.6c0.8-0.2,1.6-0.3,2.4-0.3c1.7,0,2.8,0.4,3.4,1.1c0.7,1,1,2.1,0.9,3.3v4.2h-6.6
			c-0.1-0.5-0.2-1.1-0.3-1.8c-0.1-0.7-0.1-1.5-0.1-2.2C157.3,140.4,157.4,139,157.7,137.6L157.7,137.6z M133.6,139
			c0.3-0.6,0.8-1,1.4-1.2c0.9-0.3,1.8-0.4,2.7-0.3c1.2,0,2.3,0.1,3.3,0.2v8.3h-3.4c-0.9,0-1.8-0.1-2.6-0.3c-0.6-0.2-1.1-0.7-1.4-1.3
			c-0.4-0.9-0.5-1.8-0.5-2.7C133.1,140.6,133.2,139.8,133.6,139L133.6,139z"/>
		<rect id="Rectangle_376" x="138.7" y="126.9" class="st3" width="3.3" height="4"/>
		<path id="Path_1323" class="st3" d="M209.5,127.5h-4.3v18.4h-8.1c-0.7,0-1.5-0.1-2.2-0.3c1.2-1.1,2.4-2.3,3.4-3.6
			c0.7-0.9,1.2-2.1,1.2-3.3l0.1-2.8c-1.3-0.7-2.6-1.3-4-1.7c-1.5-0.5-3.2-0.8-4.8-0.8c-1.6,0-3.2,0.3-4.8,0.8
			c-1.4,0.4-2.7,1-3.9,1.7l0.1,2.8c0,1.2,0.4,2.3,1.2,3.3c1,1.3,2.2,2.5,3.4,3.6c-0.7,0.2-1.4,0.2-2.2,0.3H177v-18.4h-4.3v22.3h12
			c1,0,2.1-0.1,3.1-0.4c1-0.2,2.1-0.6,3-1c1,0.4,2,0.8,3.1,1c1.1,0.2,2.1,0.4,3.2,0.4h12.3L209.5,127.5z M190.9,143.9
			c-1.3-0.7-2.5-1.7-3.4-2.9c-0.7-0.8-1.1-1.9-1.1-2.9c1.4-0.5,3-0.8,4.5-0.8c1.6,0,3.1,0.3,4.6,0.8c-0.1,1-0.4,2-1.1,2.8
			C193.4,142.2,192.2,143.2,190.9,143.9z"/>
		<rect id="Rectangle_377" x="214.5" y="127.5" class="st3" width="4.3" height="22.3"/>
		<rect id="Rectangle_378" x="234.9" y="126.9" class="st3" width="3.3" height="4"/>
		<path id="Path_1324" class="st3" d="M233.5,149.1c1.6,0.5,3.3,0.7,5,0.7H312v-22.3h-4.3v18.4H301v-3c0-2.1-0.4-4.1-1.3-6
			c-0.8-1.7-2.1-3.1-3.7-4c-1.8-1-3.9-1.5-5.9-1.4c-1.4,0-2.7,0.1-4.1,0.4c-1.4,0.3-3,0.6-4.6,1l0.3,3.4c1.8-0.3,3.3-0.5,4.4-0.7
			c1-0.1,2-0.2,3-0.2c1.9,0,3.7,0.6,5.3,1.7c1.6,1.1,2.3,3.1,2.3,6v3h-3v-0.6c0-1.1-0.3-2.2-0.8-3.2c-0.6-1-1.4-1.9-2.3-2.5
			c-1-0.6-2.2-1-3.4-0.9c-1.2,0-2.4,0.3-3.4,0.9c-2,1.2-3.2,3.4-3.2,5.7v0.6h-8.1v-12h-4.3v12h-9.5v-12h-4.3v12h-8.1v-11.9
			c-0.7-0.1-1.8-0.2-3.5-0.3c-1.7-0.1-3.1-0.1-4.3-0.1c-1.8-0.1-3.5,0.2-5.2,0.7c-1.2,0.4-2.1,1.3-2.7,2.4c-0.6,1.6-0.9,3.2-0.8,4.9
			c-0.1,1.8,0.2,3.5,0.9,5.1C231.3,147.8,232.3,148.6,233.5,149.1z M284.8,145.2c0-0.7,0.2-1.4,0.7-1.9c0.4-0.5,1-0.8,1.6-0.8
			c0.6,0,1.2,0.3,1.7,0.8c0.4,0.5,0.7,1.2,0.7,1.9v0.7h-4.6L284.8,145.2z M234.6,139c0.3-0.6,0.8-1,1.4-1.2c0.9-0.3,1.8-0.4,2.7-0.3
			c1.2,0,2.3,0.1,3.3,0.2v8.3h-3.4c-0.9,0-1.8-0.1-2.6-0.3c-0.6-0.2-1.1-0.7-1.4-1.3c-0.4-0.9-0.5-1.8-0.5-2.7
			C234.2,140.6,234.3,139.8,234.6,139L234.6,139z"/>
		<rect id="Rectangle_379" x="239.8" y="126.9" class="st3" width="3.3" height="4"/>
		<path id="Path_1325" class="st3" d="M253,130.2l7-1.4l-0.4-1.9l-3.5,0.9c-0.5-0.3-0.8-0.9-0.8-1.4c0-0.9,0.7-1.6,1.6-1.6
			c0,0,0.1,0,0.1,0c0.5,0,1,0.2,1.3,0.4l0.4-1.9c-0.7-0.5-1.6-0.7-2.5-0.8c-0.9,0-1.8,0.3-2.4,1c-0.6,0.6-0.9,1.4-0.9,2.3
			c0,1,0.5,2,1.2,2.6l-1.5,0.4L253,130.2z"/>
		<rect id="Rectangle_380" x="271" y="152.3" class="st3" width="3.3" height="4"/>
		<rect id="Rectangle_381" x="266.2" y="152.3" class="st3" width="3.3" height="4"/>
		<rect id="Rectangle_382" x="317.1" y="127.5" class="st3" width="4.3" height="22.3"/>
		<path id="Path_1326" class="st3" d="M45,171.9c0.1-1.8-0.5-3.6-1.7-4.9c-1.4-1.2-3.3-1.8-5.1-1.6h-7.8v20.4h3.6v-7.2h4.3l3.2,7.2
			h3.9l-3.6-8C43.9,176.8,45,174.8,45,171.9z M41.3,172c0.1,0.9-0.2,1.8-0.8,2.6c-0.6,0.6-1.5,0.9-2.4,0.8h-4.2v-6.8h4.2
			c0.9-0.1,1.8,0.2,2.4,0.8C41.1,170.2,41.4,171.1,41.3,172L41.3,172z"/>
		<path id="Path_1327" class="st3" d="M53.3,170.4c-2.3,0-4,0.7-5.1,1.9c-1,1.3-1.6,3.3-1.6,6c0,2.6,0.5,4.6,1.5,5.9
			c1,1.3,2.8,1.9,5.1,1.9s4.1-0.7,5.1-2c1-1.3,1.5-3.2,1.5-5.8c0-2.7-0.5-4.7-1.6-5.9C57.3,171.1,55.6,170.4,53.3,170.4z
			 M50.5,175.4c0.1-0.5,0.4-1,0.9-1.3c0.6-0.3,1.2-0.4,1.9-0.4c0.6,0,1.3,0.1,1.9,0.4c0.5,0.3,0.8,0.8,0.9,1.3c0.2,1,0.3,2,0.3,3
			c0,1-0.1,1.9-0.3,2.9c-0.1,0.5-0.4,1-0.9,1.3l0,0c-0.6,0.3-1.2,0.5-1.9,0.4c-0.7,0-1.3-0.1-1.9-0.4c-0.5-0.3-0.8-0.8-0.9-1.3
			c-0.2-0.9-0.3-1.9-0.3-2.9C50.1,177.3,50.2,176.3,50.5,175.4L50.5,175.4z"/>
		<path id="Path_1328" class="st3" d="M73.7,182.9c-0.1-0.1-0.2-0.3-0.2-0.5v-6.8c0.1-1.4-0.3-2.8-1.3-3.8c-1.1-0.9-2.5-1.4-3.9-1.2
			c-1.9,0-3.8,0.3-5.7,0.7l-0.3,0.1l0.1,2.8l0.5-0.1c1.8-0.2,3.6-0.3,5.5-0.3c0.5,0,0.9,0.1,1.3,0.4c0.3,0.4,0.5,1,0.4,1.5v0.7
			l-3.6,0.3c-1.3,0-2.6,0.5-3.7,1.3c-0.9,0.9-1.3,2.1-1.2,3.4c-0.1,1.3,0.3,2.6,1.2,3.6c0.9,0.9,2.1,1.4,3.4,1.3
			c1.6,0,3.3-0.4,4.8-1c0.4,0.3,0.9,0.6,1.4,0.7c0.7,0.2,1.5,0.3,2.2,0.3h0.4l0.1-2.8l-0.4-0.1C74.2,183.2,73.9,183.1,73.7,182.9z
			 M69.9,179.1v3.4l-0.3,0.1c-1,0.3-2.1,0.5-3.2,0.5c-0.7,0-1.5-0.2-1.5-1.8c0-0.5,0.1-1,0.4-1.3c0.4-0.3,0.9-0.5,1.4-0.5
			L69.9,179.1z"/>
		<path id="Path_1329" class="st3" d="M85.3,170.7c-3.6-0.7-6.3-0.2-7.8,1.7c-1,1.3-1.5,3.3-1.5,6.1c-0.1,2,0.3,3.9,1.3,5.7
			c1,1.4,2.6,2.1,4.3,2c1.3,0,2.6-0.3,3.7-0.9v0.6h3.5v-21.1h-3.5V170.7z M85.3,182.2l-0.2,0.1c-0.5,0.2-1,0.3-1.5,0.4l0,0
			c-1.8,0.4-2.8,0.2-3.4-0.8c-0.5-1.1-0.7-2.3-0.6-3.5c-0.1-1.3,0.1-2.6,0.7-3.8c0.6-0.7,1.5-1.1,2.4-1c0.9,0,1.7,0.1,2.6,0.3
			L85.3,182.2z"/>
		<path id="Path_1330" class="st3" d="M100.7,177.4c-0.9-0.3-1.8-0.6-2.7-0.8c-0.4-0.1-0.7-0.1-0.8-0.1c-0.7-0.1-1.2-0.2-1.6-0.4
			c-0.3-0.1-0.6-0.2-0.8-0.4c-0.2-0.2-0.3-0.4-0.2-0.7c0-0.3,0-1.3,2.5-1.3c1.6,0,3.2,0.2,4.8,0.4l0.5,0.1l0.1-3.1l-1.2-0.2
			c-1.4-0.3-2.9-0.4-4.3-0.4c-4.8,0-5.8,2.6-5.8,4.8c0,0.8,0.2,1.6,0.6,2.3c0.4,0.6,1,1.1,1.7,1.3c0.9,0.3,1.8,0.6,2.7,0.7l0.7,0.1
			c0.6,0.1,1.1,0.2,1.6,0.3c0.3,0.1,0.6,0.2,0.8,0.5c0.2,0.2,0.3,0.5,0.3,0.8c0,0.4-0.2,0.9-0.6,1.1c-0.6,0.3-1.3,0.4-2.1,0.4
			c-1.6-0.1-3.2-0.2-4.9-0.5l-0.5-0.1l-0.2,3.1l1.2,0.2c1.4,0.3,2.9,0.4,4.4,0.5c1.6,0.1,3.2-0.3,4.5-1.2c1.1-1,1.6-2.4,1.5-3.8
			c0-0.8-0.1-1.6-0.5-2.4C102,178.2,101.4,177.7,100.7,177.4z"/>
		<path id="Path_1331" class="st3" d="M116.4,169.1c0.9-0.6,2-0.8,3.1-0.7c2,0,3.9,0.2,5.9,0.5l0.5,0.1l0.2-3l-1.4-0.3
			c-1.9-0.4-3.8-0.6-5.7-0.6c-1.6-0.1-3.3,0.3-4.7,1.1c-1.2,0.8-2.1,2.1-2.6,3.5c-0.6,1.9-0.8,3.9-0.8,5.9c-0.1,2,0.2,4,0.7,5.9
			c0.4,1.4,1.3,2.7,2.6,3.5c1.5,0.8,3.1,1.2,4.8,1.1c2.2,0,4.4-0.3,6.6-0.7l0.4-0.1v-10.6h-6.4v3.3h2.8v4.5c-1,0.2-2.1,0.2-3.1,0.2
			c-1,0.1-2-0.2-2.9-0.7c-0.7-0.5-1.2-1.3-1.4-2.1c-0.3-1.4-0.5-2.9-0.4-4.3c0-1.5,0.1-3,0.4-4.5
			C115.2,170.5,115.6,169.7,116.4,169.1z"/>
		<path id="Path_1332" class="st3" d="M134.7,170.4c-1.9-0.1-3.7,0.6-5,2.1c-1.1,1.3-1.6,3.4-1.6,6.1c0,2.5,0.5,4.4,1.5,5.6l0,0
			c1,1.2,2.7,1.8,5,1.8c1.8,0,3.6-0.2,5.4-0.6l0.4-0.1l-0.1-2.9l-1.3,0.1c-0.6,0.1-1.2,0.1-2,0.1c-1.4,0.2-2.8,0.1-4.1-0.3
			c-0.4-0.2-0.8-0.5-1-1c-0.2-0.6-0.3-1.2-0.3-1.8h9l0.2-2.4C140.9,172.8,138.8,170.4,134.7,170.4z M131.7,176.9
			c0-0.9,0.2-1.8,0.7-2.5c0.6-0.6,1.4-0.9,2.3-0.9c0.8-0.1,1.6,0.2,2.1,0.8c0.5,0.8,0.7,1.7,0.6,2.6H131.7z"/>
		<path id="Path_1333" class="st3" d="M153.6,171.2c-0.9-0.6-2-0.8-3.1-0.8c-0.8,0-1.5,0.1-2.2,0.3c-0.6,0.2-1.1,0.4-1.7,0.7v-0.7
			h-3.5v15.1h3.5v-11.4l0.2-0.1c1-0.4,2-0.6,3-0.6c0.5,0,1,0.1,1.4,0.4c0.3,0.3,0.6,0.7,0.6,1.2c0.2,0.9,0.2,1.8,0.2,2.7v7.9h3.5v-8
			c0-1.4-0.1-2.8-0.4-4.2C155,172.7,154.5,171.8,153.6,171.2z"/>
		<path id="Path_1334" class="st3" d="M164.5,170.4c-1.9-0.1-3.7,0.6-5,2.1c-1.1,1.3-1.6,3.4-1.6,6.1c0,2.5,0.5,4.4,1.5,5.6l0,0
			c1,1.2,2.7,1.8,5,1.8c1.8,0,3.6-0.2,5.4-0.6l0.4-0.1l-0.1-2.9l-1.3,0.1c-0.6,0.1-1.2,0.1-2,0.1c-1.4,0.2-2.8,0.1-4.1-0.3
			c-0.4-0.2-0.8-0.5-1-1c-0.2-0.6-0.3-1.2-0.3-1.8h9l0.2-2.4C170.7,172.8,168.6,170.4,164.5,170.4z M167.2,176.9h-5.7
			c0-0.9,0.2-1.8,0.7-2.5c0.6-0.6,1.4-0.9,2.3-0.9c0.8-0.1,1.6,0.2,2.1,0.8C167,175.1,167.3,176,167.2,176.9L167.2,176.9z"/>
		<path id="Path_1335" class="st3" d="M176.5,172.2v-1.5H173v15.1h3.5v-10.3l0.4-0.2c0.6-0.3,1.3-0.5,1.9-0.7
			c0.7-0.2,1.5-0.5,2.3-0.6l0.3-0.1v-3.5l-0.5,0.1C179.4,170.8,177.9,171.4,176.5,172.2z"/>
		<path id="Path_1336" class="st3" d="M194.5,182.9c-0.1-0.1-0.2-0.3-0.2-0.5v-6.8c0.1-1.4-0.3-2.8-1.3-3.8
			c-1.1-0.9-2.5-1.4-3.9-1.2c-1.9,0-3.8,0.3-5.7,0.7l-0.3,0.1l0.1,2.8l0.5-0.1c1.8-0.2,3.6-0.3,5.5-0.3c0.5,0,0.9,0.1,1.3,0.4
			c0.3,0.4,0.5,1,0.4,1.5v0.7l-3.6,0.3c-1.3,0-2.6,0.5-3.7,1.3c-0.9,0.9-1.3,2.1-1.2,3.4c-0.1,1.3,0.3,2.6,1.2,3.6
			c0.9,0.9,2.1,1.4,3.4,1.3c1.6,0,3.3-0.4,4.8-1c0.4,0.3,0.9,0.6,1.4,0.7c0.7,0.2,1.5,0.3,2.2,0.3h0.4l0.1-2.8l-0.4-0.1
			C195,183.2,194.7,183.1,194.5,182.9z M190.7,179.1v3.4l-0.3,0.1c-1,0.3-2.1,0.5-3.2,0.5c-0.7,0-1.5-0.2-1.5-1.8
			c0-0.5,0.1-1,0.4-1.3c0.4-0.3,0.9-0.5,1.4-0.5L190.7,179.1z"/>
		<rect id="Rectangle_383" x="197.6" y="164.7" class="st3" width="3.5" height="21.1"/>
		<path id="Path_1337" class="st3" d="M214.4,165.4l-5.3,20.4h3.6l1.2-4.6h7.2l1.2,4.6h3.6l-5.3-20.4H214.4z M218,168.6l2.4,9.4
			h-5.7l2.4-9.4H218z"/>
		<path id="Path_1338" class="st3" d="M236.3,182.2c-0.5,0.2-1,0.4-1.5,0.5c-0.5,0.1-1.1,0.2-1.7,0.2c-0.5,0-1-0.1-1.4-0.3
			c-0.3-0.3-0.5-0.7-0.6-1.1c-0.1-0.9-0.2-1.9-0.2-2.9v-7.8h-3.5v7.8c0,1.4,0.1,2.9,0.4,4.3c0.2,1,0.8,1.9,1.6,2.5
			c0.9,0.6,2,0.8,3.1,0.8c0.7,0,1.5-0.1,2.2-0.3c0.5-0.2,1.1-0.4,1.6-0.7v0.6h3.5v-15.1h-3.5V182.2z"/>
		<path id="Path_1339" class="st3" d="M248.4,182.9c-0.6,0.1-1.1-0.2-1.2-0.8c0-0.1,0-0.2,0-0.2c-0.1-0.6-0.1-1.3-0.1-1.9v-6.1h4.2
			v-3.1h-4.2v-4.2h-3.5v4.2h-1.9v3.1h1.9v6.6c0,1.1,0.1,2.2,0.4,3.3c0.2,0.8,0.7,1.4,1.4,1.9l0,0c0.8,0.4,1.7,0.6,2.6,0.5
			c1.1,0,2.1-0.1,3.1-0.3l0.4-0.1l-0.2-3L248.4,182.9z"/>
		<path id="Path_1340" class="st3" d="M263.4,171.2c-0.9-0.6-2-0.8-3.1-0.8c-0.7,0-1.4,0.1-2.2,0.3c-0.6,0.2-1.1,0.3-1.7,0.6v-6.6
			H253v21.1h3.5v-11.6l0.2-0.1c0.9-0.3,1.9-0.5,2.9-0.5c0.5,0,1.1,0.1,1.5,0.3c0.4,0.3,0.6,0.7,0.7,1.1c0.2,0.9,0.2,1.8,0.2,2.7v7.9
			h3.5v-8c0-1.4-0.1-2.8-0.4-4.2C264.8,172.7,264.2,171.8,263.4,171.2z"/>
		<path id="Path_1341" class="st3" d="M274.4,170.4c-2.3,0-4,0.7-5.1,1.9c-1,1.3-1.6,3.3-1.6,6c0,2.6,0.5,4.6,1.5,5.9
			c1,1.3,2.8,1.9,5.1,1.9s4.1-0.7,5.1-2c1-1.3,1.5-3.2,1.5-5.8c0-2.7-0.5-4.7-1.6-5.9C278.4,171.1,276.7,170.4,274.4,170.4z
			 M277.4,178.4c0,1-0.1,1.9-0.3,2.9c-0.1,0.5-0.4,1-0.9,1.3c-0.6,0.3-1.2,0.5-1.9,0.4c-0.7,0-1.3-0.1-1.9-0.4
			c-0.5-0.3-0.8-0.8-0.9-1.3c-0.2-0.9-0.3-1.9-0.3-2.9c0-1,0.1-2,0.3-3c0.1-0.5,0.4-1,0.9-1.3c0.6-0.3,1.2-0.4,1.9-0.4
			c0.6,0,1.3,0.1,1.9,0.4c0.5,0.3,0.8,0.8,0.9,1.3C277.4,176.3,277.5,177.3,277.4,178.4L277.4,178.4z"/>
		<path id="Path_1342" class="st3" d="M286.9,172.2v-1.5h-3.5v15.1h3.5v-10.3l0.4-0.2c0.6-0.3,1.3-0.5,1.9-0.7
			c0.7-0.2,1.5-0.5,2.3-0.6l0.3-0.1v-3.5l-0.5,0.1C289.8,170.8,288.3,171.4,286.9,172.2z"/>
		<rect id="Rectangle_384" x="293.5" y="165.1" class="st3" width="3.5" height="3.7"/>
		<rect id="Rectangle_385" x="293.5" y="170.8" class="st3" width="3.5" height="15.1"/>
		<path id="Path_1343" class="st3" d="M305.1,182.9c-0.6,0.1-1.1-0.2-1.2-0.8c0-0.1,0-0.2,0-0.2c-0.1-0.6-0.1-1.3-0.1-1.9v-6.1h4.2
			v-3.1h-4.2v-4.2h-3.5v4.2h-1.9v3.1h1.9v6.6c0,1.1,0.1,2.2,0.4,3.3c0.2,0.8,0.7,1.4,1.4,1.9l0,0c0.8,0.4,1.7,0.6,2.6,0.5
			c1.1,0,2.1-0.1,3.1-0.3l0.4-0.1l-0.2-3L305.1,182.9z"/>
		<path id="Path_1344" class="st3" d="M315.2,182.7H315l-3.2-11.9h-3.5l4.1,15.1h2.1l-1.8,6.2h3.5l5.9-21.3h-3.5L315.2,182.7z"/>
		<rect id="Rectangle_386" x="335.3" y="122.2" class="st3" width="2.6" height="69.6"/>
	</g>
</g>
</svg>
